<?xml version="1.0" encoding="utf-8"?>
<!-- Generator: Adobe Illustrator 15.0.0, SVG Export Plug-In . SVG Version: 6.00 Build 0)  -->
<!DOCTYPE svg PUBLIC "-//W3C//DTD SVG 1.1//EN" "http://www.w3.org/Graphics/SVG/1.1/DTD/svg11.dtd">
<svg version="1.1" id="Layer_1" xmlns="http://www.w3.org/2000/svg" xmlns:xlink="http://www.w3.org/1999/xlink" x="0px" y="0px"
	 width="18.75px" height="18.75px" viewBox="0 0 18.75 18.75" enable-background="new 0 0 18.75 18.75" xml:space="preserve">
<g>
	<path fill="#C6C7E2" d="M9.375,0.5c-4.688,0-8.5,3.813-8.5,8.5c0,4.688,3.812,8.5,8.5,8.5c4.687,0,8.5-3.812,8.5-8.5
		C17.875,4.313,14.062,0.5,9.375,0.5L9.375,0.5z M9.375,16.386C5.303,16.386,1.99,13.072,1.99,9s3.312-7.385,7.385-7.385
		S16.76,4.928,16.76,9S13.447,16.386,9.375,16.386L9.375,16.386z M9.375,16.386"/>
	<path fill="#C6C7E2" d="M12.753,8.443H5.997c-0.308,0-0.558,0.25-0.558,0.557c0,0.309,0.25,0.559,0.558,0.559h6.756
		c0.308,0,0.558-0.25,0.558-0.559C13.311,8.693,13.061,8.443,12.753,8.443L12.753,8.443z M12.753,8.443"/>
</g>
</svg>
