<?xml version="1.0" encoding="utf-8"?>
<!-- Generator: Adobe Illustrator 15.0.0, SVG Export Plug-In . SVG Version: 6.00 Build 0)  -->
<!DOCTYPE svg PUBLIC "-//W3C//DTD SVG 1.1//EN" "http://www.w3.org/Graphics/SVG/1.1/DTD/svg11.dtd">
<svg version="1.1" id="Layer_1" xmlns="http://www.w3.org/2000/svg" xmlns:xlink="http://www.w3.org/1999/xlink" x="0px" y="0px"
	 width="18.75px" height="18.75px" viewBox="0 0 18.75 18.75" enable-background="new 0 0 18.75 18.75" xml:space="preserve">
<g>
	<path fill="#6A6C8A" d="M15.386,3.365c-3.315-3.314-8.707-3.313-12.021,0c-3.314,3.315-3.314,8.706,0,12.02
		c3.314,3.314,8.707,3.314,12.021,0S18.699,6.68,15.386,3.365L15.386,3.365z M4.152,14.598C1.273,11.719,1.273,7.035,4.153,4.154
		c2.88-2.88,7.563-2.88,10.443,0c2.881,2.88,2.881,7.562,0,10.443C11.716,17.477,7.032,17.477,4.152,14.598L4.152,14.598z"/>
	<path fill="#6A6C8A" d="M12.157,11.371L7.38,6.593C7.162,6.375,6.809,6.375,6.592,6.592c-0.218,0.219-0.218,0.572,0,0.79
		l4.776,4.776c0.218,0.219,0.571,0.219,0.79,0C12.375,11.941,12.375,11.588,12.157,11.371L12.157,11.371z"/>
	<path fill="#6A6C8A" d="M11.369,6.593l-4.777,4.778c-0.217,0.217-0.217,0.568,0,0.787c0.219,0.219,0.571,0.217,0.788,0l4.777-4.777
		c0.218-0.218,0.218-0.571,0.001-0.789C11.939,6.375,11.587,6.375,11.369,6.593L11.369,6.593z"/>
</g>
</svg>
