<?xml version="1.0" encoding="utf-8"?>
<!-- Generator: Adobe Illustrator 15.0.0, SVG Export Plug-In . SVG Version: 6.00 Build 0)  -->
<!DOCTYPE svg PUBLIC "-//W3C//DTD SVG 1.1//EN" "http://www.w3.org/Graphics/SVG/1.1/DTD/svg11.dtd">
<svg version="1.1" id="Layer_1" xmlns="http://www.w3.org/2000/svg" xmlns:xlink="http://www.w3.org/1999/xlink" x="0px" y="0px"
	 width="18.75px" height="18.75px" viewBox="0 0 18.75 18.75" enable-background="new 0 0 18.75 18.75" xml:space="preserve">
<path fill="#6A6C8A" d="M9.884,9.838c0.54-0.551,1.005-0.955,1.384-1.201c0.463-0.308,0.749-0.352,0.887-0.352h1.34v1.367
	c0,0.104,0.061,0.2,0.154,0.242s0.204,0.027,0.284-0.038l3.168-2.669c0.06-0.051,0.096-0.125,0.096-0.203S17.16,6.83,17.101,6.781
	l-3.168-2.677c-0.08-0.067-0.19-0.081-0.284-0.038c-0.094,0.045-0.154,0.139-0.154,0.242v1.414h-1.343
	c-1.24,0.014-2.215,0.67-2.927,1.242c-0.797,0.65-1.533,1.447-2.245,2.217c-0.361,0.391-0.7,0.759-1.044,1.1
	c-0.541,0.549-1.011,0.951-1.395,1.199c-0.354,0.231-0.678,0.357-0.921,0.357h-1.8c-0.146,0-0.266,0.12-0.266,0.265v2.029
	c0,0.148,0.12,0.268,0.266,0.268h1.8l0,0c1.255-0.014,2.239-0.667,2.958-1.24c0.82-0.661,1.572-1.475,2.297-2.256
	C9.225,10.524,9.555,10.169,9.884,9.838z"/>
</svg>
