<?xml version="1.0" encoding="utf-8"?>
<!-- Generator: Adobe Illustrator 15.0.0, SVG Export Plug-In . SVG Version: 6.00 Build 0)  -->
<!DOCTYPE svg PUBLIC "-//W3C//DTD SVG 1.1//EN" "http://www.w3.org/Graphics/SVG/1.1/DTD/svg11.dtd">
<svg version="1.1" id="Layer_1" xmlns="http://www.w3.org/2000/svg" xmlns:xlink="http://www.w3.org/1999/xlink" x="0px" y="0px"
	 width="18.75px" height="18.75px" viewBox="0 0 18.75 18.75" enable-background="new 0 0 18.75 18.75" xml:space="preserve">
<g>
	<g>
		<path fill-rule="evenodd" clip-rule="evenodd" fill="#FD6EB6" d="M13.307,11.593c-0.69,0-1.299,0.33-1.693,0.835l-4.136-2.387
			c0.075-0.22,0.125-0.452,0.125-0.697c0-0.25-0.051-0.487-0.129-0.71l4.097-2.365c0.394,0.536,1.022,0.888,1.737,0.888
			c1.193,0,2.16-0.967,2.16-2.159s-0.967-2.159-2.16-2.159c-1.191,0-2.158,0.967-2.158,2.159c0,0.076,0.015,0.148,0.022,0.223
			L6.848,7.716C6.469,7.39,5.981,7.185,5.442,7.185c-1.191,0-2.158,0.967-2.158,2.159s0.967,2.159,2.158,2.159
			c0.545,0,1.037-0.208,1.417-0.541l4.319,2.493c-0.013,0.098-0.029,0.194-0.029,0.296c0,1.193,0.967,2.159,2.158,2.159
			c1.193,0,2.16-0.966,2.16-2.159C15.467,12.559,14.5,11.593,13.307,11.593z"/>
	</g>
</g>
</svg>
