<?xml version="1.0" encoding="utf-8"?>
<!-- Generator: Adobe Illustrator 15.0.0, SVG Export Plug-In . SVG Version: 6.00 Build 0)  -->
<!DOCTYPE svg PUBLIC "-//W3C//DTD SVG 1.1//EN" "http://www.w3.org/Graphics/SVG/1.1/DTD/svg11.dtd">
<svg version="1.1" id="Layer_1" xmlns="http://www.w3.org/2000/svg" xmlns:xlink="http://www.w3.org/1999/xlink" x="0px" y="0px"
	 width="18.75px" height="18.75px" viewBox="0 0 18.75 18.75" enable-background="new 0 0 18.75 18.75" xml:space="preserve">
<g>
	<g>
		<path fill="#FD6EB6" d="M12.285,9.711l-2.104-0.302L9.243,8.568L6.669,7.095C6.948,6.6,6.995,6.026,6.845,5.474
			c-0.191-0.698-0.695-1.36-1.438-1.786C4.068,2.922,2.464,3.214,1.82,4.338C1.536,4.836,1.489,5.414,1.64,5.97
			c0.189,0.698,0.694,1.36,1.438,1.787c0.328,0.187,0.67,0.31,1.01,0.372c0.002,0,0.006,0.002,0.008,0.004
			c0.027,0.004,0.057,0.009,0.088,0.011c2.12,0.316,3.203,0.915,3.73,1.337c-0.527,0.424-1.61,1.021-3.731,1.339
			c-0.029,0.003-0.058,0.007-0.087,0.012c-0.002,0.002-0.004,0.002-0.007,0.003c-0.341,0.062-0.684,0.187-1.013,0.374
			c-0.74,0.425-1.246,1.089-1.437,1.787c-0.149,0.555-0.105,1.133,0.181,1.632c0.011,0.018,0.021,0.033,0.033,0.049l0.883,0.783
			c0.765,0.366,1.775,0.328,2.67-0.184c0.744-0.425,1.248-1.088,1.439-1.786c0.148-0.552,0.104-1.126-0.176-1.62l2.573-1.473
			c0.573,0.287,2.299,1.292,2.299,1.292s3.602,1.445,4.241,1.812c0.773,0.191,0.566-0.151,0.566-0.151L12.285,9.711z M5.571,6.482
			C5.279,6.993,4.425,7.076,3.705,6.664C3.282,6.424,2.966,6.039,2.856,5.64C2.81,5.464,2.778,5.203,2.917,4.963
			c0.291-0.51,1.146-0.593,1.866-0.182C5.21,5.027,5.521,5.4,5.632,5.807C5.679,5.98,5.708,6.242,5.571,6.482z M5.632,13.159
			c-0.111,0.406-0.422,0.778-0.848,1.025c-0.719,0.409-1.576,0.327-1.867-0.184c-0.137-0.239-0.106-0.499-0.06-0.676
			c0.108-0.398,0.426-0.781,0.847-1.022c0.72-0.412,1.574-0.329,1.866,0.181C5.708,12.723,5.679,12.983,5.632,13.159z M16.181,5.139
			c-0.448,0.258-4.435,1.9-4.435,1.9s-1.556,0.855-2.104,1.13l0.937,0.843l2.057-0.229l4.11-3.638
			C16.745,5.146,17.013,4.664,16.181,5.139z"/>
	</g>
</g>
</svg>
