<?xml version="1.0" encoding="utf-8"?>
<!-- Generator: Adobe Illustrator 15.0.0, SVG Export Plug-In . SVG Version: 6.00 Build 0)  -->
<!DOCTYPE svg PUBLIC "-//W3C//DTD SVG 1.1//EN" "http://www.w3.org/Graphics/SVG/1.1/DTD/svg11.dtd">
<svg version="1.1" id="Layer_1" xmlns="http://www.w3.org/2000/svg" xmlns:xlink="http://www.w3.org/1999/xlink" x="0px" y="0px"
	 width="18.75px" height="18.75px" viewBox="0 0 18.75 18.75" enable-background="new 0 0 18.75 18.75" xml:space="preserve">
<path fill="#FD6EB6" d="M9.374,17.592c-4.176,0-7.57-3.401-7.57-7.575c0-4.175,3.395-7.574,7.57-7.574c0.28,0,0.56,0.018,0.837,0.05
	V1.268c0-0.158,0.099-0.3,0.239-0.36c0.151-0.058,0.315-0.026,0.428,0.086l2.683,2.688c0.152,0.154,0.152,0.399,0,0.553l-2.68,2.693
	c-0.115,0.112-0.279,0.147-0.431,0.087c-0.141-0.063-0.239-0.205-0.239-0.361V5.296C9.934,5.243,9.654,5.22,9.374,5.22
	c-2.646,0-4.796,2.152-4.796,4.797s2.154,4.798,4.796,4.798c2.645,0,4.798-2.153,4.798-4.798c0-0.214,0.174-0.391,0.391-0.391h1.991
	c0.217,0,0.394,0.177,0.394,0.391C16.947,14.19,13.549,17.592,9.374,17.592L9.374,17.592z M9.374,17.592"/>
</svg>
